<?xml version="1.0" encoding="UTF-8" standalone="no"?>
<!-- Created with Inkscape (http://www.inkscape.org/) -->

<svg
   xmlns:dc="http://purl.org/dc/elements/1.1/"
   xmlns:cc="http://creativecommons.org/ns#"
   xmlns:rdf="http://www.w3.org/1999/02/22-rdf-syntax-ns#"
   xmlns:svg="http://www.w3.org/2000/svg"
   xmlns="http://www.w3.org/2000/svg"
   xmlns:sodipodi="http://sodipodi.sourceforge.net/DTD/sodipodi-0.dtd"
   xmlns:inkscape="http://www.inkscape.org/namespaces/inkscape"
   version="1.0"
   width="1000"
   height="138.06799"
   id="svg101576"
   sodipodi:docname="Nintendo_DS_Logo.svg"
   inkscape:version="0.92.2 (5c3e80d, 2017-08-06)">
  <metadata
     id="metadata8670">
    <rdf:RDF>
      <cc:Work
         rdf:about="">
        <dc:format>image/svg+xml</dc:format>
        <dc:type
           rdf:resource="http://purl.org/dc/dcmitype/StillImage" />
        <dc:title></dc:title>
      </cc:Work>
    </rdf:RDF>
  </metadata>
  <sodipodi:namedview
     pagecolor="#ffffff"
     bordercolor="#666666"
     borderopacity="1"
     objecttolerance="10"
     gridtolerance="10"
     guidetolerance="10"
     inkscape:pageopacity="0"
     inkscape:pageshadow="2"
     inkscape:window-width="1366"
     inkscape:window-height="705"
     id="namedview8668"
     showgrid="false"
     inkscape:zoom="1.0702558"
     inkscape:cx="600.51281"
     inkscape:cy="99.402491"
     inkscape:window-x="-8"
     inkscape:window-y="-8"
     inkscape:window-maximized="1"
     inkscape:current-layer="svg101576" />
  <defs
     id="defs101578" />
  <path
     d="m 613.62807,124.14394 c 0,1.46566 -1.20187,2.78473 -2.68222,2.78473 h -51.32866 c -1.495,0 -2.69688,-1.31907 -2.69688,-2.78473 V 87.061788 c 0,-1.465657 1.20188,-2.63824 2.69688,-2.63824 h 51.32866 c 1.48035,0 2.68222,1.172583 2.68222,2.63824 z m -2.22786,-50.859624 h -52.25204 c -7.56299,0 -13.73357,6.155907 -13.73357,13.777472 v 37.228632 c 0,7.47508 6.17058,13.77759 13.73357,13.77759 h 52.25204 c 7.57765,0 13.73357,-6.30251 13.73357,-13.77759 V 87.061788 c 0,-7.621565 -6.15592,-13.777472 -13.73357,-13.777472"
     style="fill:#929497;fill-rule:nonzero;stroke:none;stroke-width:1.35802054"
     id="path100608"
     inkscape:connector-curvature="0" />
  <path
     d="m 11.989391,17.587859 c 0,0 0,47.19537 0,47.928199 -0.63025,0 -11.34448197,0 -11.989391,0 0,-0.732829 0,-64.0508639 0,-64.7836919 0.67421376,0 9.9374174,0 10.245207,0 L 58.803703,47.92775 c 0,0 0,-46.4625559 0,-47.1953839 0.659555,0 9.600298,0 9.600298,0 0,0 1.700208,0 2.227858,0 0,0.732828 0,64.0508629 0,64.7836919 -0.644897,0 -9.043332,0 -9.365793,0 L 11.989391,17.587859"
     style="fill:#000000;fill-rule:nonzero;stroke:none;stroke-width:1.35802054"
     id="path100618"
     inkscape:connector-curvature="0" />
  <path
     d="m 132.19108,17.587859 c 0,0 0,47.19537 0,47.928199 -0.64491,0 -11.32984,0 -11.98939,0 0,-0.732829 0,-64.0508639 0,-64.7836919 0.67422,0 9.92275,0 10.23054,0 L 178.99072,47.92775 c 0,0 0,-46.4625559 0,-47.1953839 0.65958,0 9.61497,0 9.61497,0 0,0 1.71486,0 2.22787,0 0,0.732828 0,64.0508629 0,64.7836919 -0.65958,0 -9.04334,0 -9.36581,0 L 132.19108,17.587859"
     style="fill:#000000;fill-rule:nonzero;stroke:none;stroke-width:0.06790103;stroke-linecap:butt;stroke-linejoin:miter;stroke-miterlimit:4;stroke-dasharray:none"
     id="path100622"
     inkscape:connector-curvature="0" />
  <path
     d="m 381.31534,17.587859 c 0,0 0,47.19537 0,47.928199 -0.65957,0 -11.32983,0 -11.9894,0 0,-0.732829 0,-64.0508639 0,-64.7836919 0.67423,0 9.93741,0 10.23056,0 L 428.11499,47.92775 c 0,0 0,-46.4625559 0,-47.1953839 0.65957,0 9.61497,0 9.61497,0 0,0 1.71486,0 2.22786,0 0,0.732828 0,64.0508629 0,64.7836919 -0.65958,0 -9.04335,0 -9.35114,0 L 381.31534,17.587859"
     style="fill:#000000;fill-rule:nonzero;stroke:none;stroke-width:0.06790103;stroke-linecap:butt;stroke-linejoin:miter;stroke-miterlimit:4;stroke-dasharray:none"
     id="path100626"
     inkscape:connector-curvature="0" />
  <path
     d="m 99.183606,0.7323661 c 0,0 1.700214,0 2.213204,0 0,0.732828 0,64.0508629 0,64.7836919 -0.63025,0 -11.34448,0 -11.989391,0 0,-0.732829 0,-64.0508639 0,-64.7836919 0.659564,0 9.776187,0 9.776187,0"
     style="fill:#000000;fill-rule:nonzero;stroke:none;stroke-width:0.06790103;stroke-linecap:butt;stroke-linejoin:miter;stroke-miterlimit:4;stroke-dasharray:none"
     id="path100630"
     inkscape:connector-curvature="0" />
  <path
     d="m 272.48744,0.7323661 c 0,0 1.67089,0 2.19854,0 0,0.586244 0,10.5529869 0,11.1392309 -0.70352,0 -28.9035,0 -28.9035,0 0,0 0,52.911632 0,53.644461 -0.64491,0 -11.81352,0 -12.45843,0 0,-0.732829 0,-53.644461 0,-53.644461 0,0 -28.19997,0 -28.90351,0 0,-0.586244 0,-10.5529869 0,-11.1392309 0.71819,0 68.0669,0 68.0669,0"
     style="fill:#000000;fill-rule:nonzero;stroke:none;stroke-width:0.06790103;stroke-linecap:butt;stroke-linejoin:miter;stroke-miterlimit:4;stroke-dasharray:none"
     id="path100634"
     inkscape:connector-curvature="0" />
  <path
     d="m 349.2899,0.7323661 c 0,0 1.72951,0 2.2425,0 0,0.586244 0,10.5529869 0,11.1392309 -0.68887,0 -51.38728,0 -51.38728,0 v 14.51041 c 0,0 39.07544,0 39.74967,0 0,0.732828 0,10.406402 0,11.13934 -0.67423,0 -39.74967,0 -39.74967,0 v 16.855479 c 0,0 50.69841,0 51.38728,0 0,0.586244 0,10.406403 0,11.139232 -0.68887,0 -62.57053,0 -63.25941,0 0,-0.732829 0,-64.0508639 0,-64.7836919 0.68888,0 61.01691,0 61.01691,0"
     style="fill:#000000;fill-rule:nonzero;stroke:none;stroke-width:0.06790103;stroke-linecap:butt;stroke-linejoin:miter;stroke-miterlimit:4;stroke-dasharray:none"
     id="path100638"
     inkscape:connector-curvature="0" />
  <path
     d="M 506.61764,54.376826 H 469.79937 V 11.871597 h 36.81827 c 11.52036,0 15.60966,11.432402 15.60966,21.252561 0,9.673683 -4.0893,21.252668 -15.60966,21.252668 z m 19.66964,-44.117471 c -4.69022,-6.3025049 -11.62297,-9.5269889 -20.00674,-9.5269889 0,0 -47.34197,0 -48.04551,0 0,0.732828 0,64.0508629 0,64.7836919 0.70354,0 48.04551,0 48.04551,0 8.38377,0 15.31652,-3.371082 20.00674,-9.526989 4.39708,-5.716262 6.72754,-13.630996 6.72754,-22.864911 0,-9.233807 -2.33046,-17.148541 -6.72754,-22.864803"
     style="fill:#000000;fill-rule:nonzero;stroke:none;stroke-width:0.06790103;stroke-linecap:butt;stroke-linejoin:miter;stroke-miterlimit:4;stroke-dasharray:none"
     id="path100642"
     inkscape:connector-curvature="0" />
  <path
     d="m 613.62807,51.738586 c 0,1.319059 -1.20187,2.63824 -2.68222,2.63824 h -51.32866 c -1.495,0 -2.69688,-1.319181 -2.69688,-2.63824 V 14.509838 c 0,-1.465644 1.20188,-2.638241 2.69688,-2.638241 h 51.32866 c 1.48035,0 2.68222,1.172597 2.68222,2.638241 z M 611.40021,0.7323661 h -52.25204 c -7.56299,0 -13.73357,6.155921 -13.73357,13.7774719 v 37.228748 c 0,7.621565 6.17058,13.777472 13.73357,13.777472 h 52.25204 c 7.57765,0 13.73357,-6.155907 13.73357,-13.777472 V 14.509838 c 0,-7.6215509 -6.15592,-13.7774719 -13.73357,-13.7774719"
     style="fill:#000000;fill-rule:nonzero;stroke:none;stroke-width:0.06790103;stroke-linecap:butt;stroke-linejoin:miter;stroke-miterlimit:4;stroke-dasharray:none"
     id="path100646"
     inkscape:connector-curvature="0" />
  <path
     d="m 829.056,110.65954 c 12.42909,4.98332 38.67967,8.94073 59.17009,8.94073 22.42515,0 31.70305,-7.62167 31.70305,-17.29524 0,-8.794152 -8.61837,-13.777585 -33.37393,-22.864807 -33.11007,-12.165338 -57.39662,-21.838912 -57.39662,-43.677825 0,-22.425034 29.22601,-35.76284689941 73.76847,-35.76284689941 23.92013,0 32.12805,1.46564299941 47.31265,4.25048199941 l 0.11733,21.3991449 c -14.92086,-2.784825 -28.1414,-7.621673 -48.6758,-7.621673 -22.0147,0 -31.39521,7.035321 -31.39521,14.217239 0,10.406512 14.45178,15.389823 39.7937,24.477153 35.27923,12.604998 54.90489,22.278559 54.90489,43.531123 0,21.98551 -24.57966,37.81499 -80.01226,37.81499 -22.76231,0 -38.45986,-1.46566 -55.9163,-4.39708 v -23.01139"
     style="fill:#000000;fill-rule:nonzero;stroke:none;stroke-width:0.06790103;stroke-linecap:butt;stroke-linejoin:miter;stroke-miterlimit:4;stroke-dasharray:none"
     id="path100656"
     inkscape:connector-curvature="0" />
  <path
     d="m 711.06752,18.906918 h -26.38253 v 99.960522 h 26.38253 c 40.49715,0 66.04423,-17.44182 66.04423,-49.833728 0,-32.391779 -25.54708,-50.126794 -66.04423,-50.126794 z m 70.80773,109.194332 c -13.04468,5.86285 -37.72699,9.67358 -59.30203,9.67358 H 640.11318 V 0.2926121 h 82.46004 c 21.57504,0 46.25735,3.810836 59.33135,9.67356 31.76163,14.3638249 42.10944,37.3753339 42.10944,59.0675399 0,21.692328 -10.25986,44.703718 -42.13876,59.067538"
     style="fill:#000000;fill-rule:nonzero;stroke:none;stroke-width:0.06790103;stroke-linecap:butt;stroke-linejoin:miter;stroke-miterlimit:4;stroke-dasharray:none"
     id="path100660"
     inkscape:connector-curvature="0" />
  <path
     d="m 973.26576,117.25509 h -5.29116 v -1.90542 h 12.88352 v 1.90542 h -5.32047 v 15.38983 h -2.27189 v -15.38983"
     style="fill:#000000;fill-rule:nonzero;stroke:none;stroke-width:0.06790103;stroke-linecap:butt;stroke-linejoin:miter;stroke-miterlimit:4;stroke-dasharray:none"
     id="path100678"
     inkscape:connector-curvature="0" />
  <path
     d="m 997.37644,125.02337 c -0.13186,-2.3452 -0.27839,-5.2765 -0.27839,-7.47511 h -0.0587 c -0.61567,2.05201 -1.31918,4.2505 -2.1986,6.59568 l -3.06335,8.50098 h -1.7002 l -2.84334,-8.3545 c -0.8209,-2.49166 -1.4951,-4.69015 -1.97872,-6.74216 h -0.0587 c -0.044,2.19861 -0.1759,5.12991 -0.32249,7.62157 l -0.46896,7.47509 h -2.13997 l 1.21657,-17.29525 h 2.85813 l 2.96062,8.35452 c 0.71818,2.19859 1.28988,4.10389 1.75884,5.86284 h 0.044 c 0.46909,-1.75895 1.08464,-3.66425 1.86144,-5.86284 l 3.09267,-8.35452 h 2.85801 L 1000,132.64492 h -2.21314 l -0.41045,-7.62155"
     style="fill:#000000;fill-rule:nonzero;stroke:none;stroke-width:0.06790103;stroke-linecap:butt;stroke-linejoin:miter;stroke-miterlimit:4;stroke-dasharray:none"
     id="path100682"
     inkscape:connector-curvature="0" />
</svg>
