<svg version="1.0" id="Layer_1" xml:space="preserve" inkscape:version="1.1.2 (b8e25be833, 2022-02-05)" sodipodi:docname="PlayStation_2_Logo.svg" xmlns:inkscape="http://www.inkscape.org/namespaces/inkscape" xmlns:sodipodi="http://sodipodi.sourceforge.net/DTD/sodipodi-0.dtd" xmlns:xlink="http://www.w3.org/1999/xlink" xmlns="http://www.w3.org/2000/svg" xmlns:svg="http://www.w3.org/2000/svg" xmlns:rdf="http://www.w3.org/1999/02/22-rdf-syntax-ns#" xmlns:cc="http://creativecommons.org/ns#" xmlns:dc="http://purl.org/dc/elements/1.1/" viewBox="0 0 751.77 238.65"><title id="title483">PlayStation 2 (2000)</title><metadata id="metadata27"><rdf:RDF><cc:Work rdf:about=""><dc:format>image/svg+xml</dc:format><dc:type rdf:resource="http://purl.org/dc/dcmitype/StillImage"/><dc:title>PlayStation 2 (2000)</dc:title></cc:Work></rdf:RDF></metadata><sodipodi:namedview pagecolor="#ffffff" bordercolor="#666666" borderopacity="1" objecttolerance="10" gridtolerance="10" guidetolerance="10" inkscape:pageopacity="0" inkscape:pageshadow="2" inkscape:window-width="1920" inkscape:window-height="1001" id="namedview25" showgrid="false" inkscape:zoom="1.43" inkscape:cx="344.40559" inkscape:cy="147.2028" inkscape:window-x="-9" inkscape:window-y="-9" inkscape:window-maximized="1" inkscape:current-layer="layer1" inkscape:pagecheckerboard="0"/><defs id="defs46"><linearGradient inkscape:collect="always" id="linearGradient2806"><stop style="stop-color: rgb(19, 0, 124); stop-opacity: 1; --darkreader-inline-stopcolor: #8a75ff;" offset="0" id="stop2802" data-darkreader-inline-stopcolor=""/><stop style="stop-color: rgb(19, 147, 221); stop-opacity: 1; --darkreader-inline-stopcolor: #35aaee;" offset="1" id="stop2804" data-darkreader-inline-stopcolor=""/></linearGradient><linearGradient inkscape:collect="always" xlink:href="#linearGradient2806" id="linearGradient2808" x1="375.88223" y1="1.5670226" x2="375.88223" y2="128.15395" gradientUnits="userSpaceOnUse"/></defs>
<g id="g3">
	
	
	<g id="g2800" style="fill:url(#linearGradient2808);fill-opacity:1"><polygon id="polygon5" style="fill:url(#linearGradient2808);fill-rule:evenodd;fill-opacity:1" points="0,0 0,9.149 225.361,9.149 225.361,59.874 0,59.874 0,129.721 9.143,129.721 9.143,69.021 233.679,69.021 233.679,0 0,0 "/><polygon id="polygon7" style="fill:url(#linearGradient2808);fill-rule:evenodd;fill-opacity:1" points="517.252,0 517.252,9.149 742.62,9.149 742.62,59.874 517.252,59.874 517.252,129.721 751.764,129.721 751.764,120.584 527.237,120.584 527.237,69.021 751.764,69.021 751.764,0 517.252,0 "/><polygon id="polygon9" style="fill:url(#linearGradient2808);fill-rule:evenodd;fill-opacity:1" points="353.431,0 353.431,120.584 233.679,120.584 233.679,129.721 363.407,129.721 363.407,9.149 482.325,9.149 482.325,0 353.431,0 "/></g>
	
	
	
	
	
	
	
	
	
	
	
	
	
	
	
	
	
</g><g inkscape:groupmode="layer" id="layer1" inkscape:label="Layer" style="display:inline"><path inkscape:connector-curvature="0" d="m 189.72168,175.40714 0,45.71058 7.13579,0 0,-41.33098 6.60531,0 c 0,0 4.79841,0 6.44176,2.14592 1.39605,1.82284 1.65132,5.12948 1.65132,7.36316 0,2.38923 -0.15157,6.08277 -0.9533,7.43494 -1.21656,2.06615 -3.21489,2.48098 -5.04173,2.48098 l -4.35966,0 0,4.05651 6.27027,0 c 0,0 5.65598,0.23551 8.08909,-2.23767 2.98355,-3.03141 3.7414,-7.10787 3.7414,-12.56442 0,-4.95796 -1.79891,-9.95981 -5.47649,-11.65898 -3.04339,-1.40004 -8.53185,-1.40004 -8.53185,-1.40004 l -15.57191,0" style="fill: rgb(0, 0, 0); fill-opacity: 1; fill-rule: nonzero; stroke: none; --darkreader-inline-fill: #e8e6e3; --darkreader-inline-stroke: none;" id="path3003" data-darkreader-inline-fill="" data-darkreader-inline-stroke=""/><path inkscape:connector-curvature="0" d="m 224.91005,221.11772 7.13458,0 0,-45.71058 -7.13458,0 0,45.71058 z" style="fill: rgb(0, 0, 0); fill-opacity: 1; fill-rule: nonzero; stroke: none; --darkreader-inline-fill: #e8e6e3; --darkreader-inline-stroke: none;" id="path3005" data-darkreader-inline-fill="" data-darkreader-inline-stroke=""/><path inkscape:connector-curvature="0" d="m 270.00637,186.06894 13.05504,34.21513 -7.49477,18.35603 5.92322,0 21.58289,-52.57116 -6.61327,0 -9.40139,25.62346 -8.74723,-25.62346 -8.30449,0" style="fill: rgb(0, 0, 0); fill-opacity: 1; fill-rule: nonzero; stroke: none; --darkreader-inline-fill: #e8e6e3; --darkreader-inline-stroke: none;" id="path3007" data-darkreader-inline-fill="" data-darkreader-inline-stroke=""/><path inkscape:connector-curvature="0" d="m 308.44554,220.84649 0,-4.31977 c 0,0 7.54663,0.29516 9.11819,0.29516 3.48214,0 5.22121,-0.7419 6.5295,-2.14594 0.77382,-0.8416 1.47184,-4.57104 1.47184,-5.89928 0,-1.32425 -0.25528,-4.18814 -0.77381,-5.36083 -0.53449,-1.14874 -1.75105,-2.22171 -3.57388,-2.37726 -1.30033,-0.11169 -3.31063,-0.37494 -5.65998,-0.48264 -3.29466,-0.15572 -5.47251,-1.87469 -6.52153,-3.11119 -1.04106,-1.2365 -2.43312,-3.09922 -2.43312,-8.79908 0,-5.70785 1.47583,-8.90679 2.95563,-10.39059 1.47981,-1.49177 3.64569,-2.14592 5.30898,-2.44109 1.91458,-0.32707 5.04172,-0.34701 5.04172,-0.34701 l 9.98771,0.29133 0,4.31977 c 0,0 -7.28337,-0.29133 -8.85092,-0.29133 -3.48214,0 -4.52719,0.74589 -5.8315,2.14592 -0.76982,0.83364 -1.37212,3.13912 -1.37212,4.45937 0,1.32825 0.15573,4.00865 0.67808,5.16936 0.51854,1.14876 1.73909,2.22571 3.56591,2.38924 1.29633,0.0996 3.31063,0.36297 5.65599,0.47066 3.31062,0.15542 5.48448,1.87071 6.52154,3.11121 1.04903,1.24048 2.44508,3.85309 2.44508,9.54895 0,5.70785 -1.48779,9.78431 -2.95964,11.27209 -1.48379,1.4838 -3.64567,2.14593 -5.30896,2.43311 -1.91856,0.33107 -5.04571,0.35501 -5.04571,0.35501 l -10.949,-0.29517" style="fill: rgb(0, 0, 0); fill-opacity: 1; fill-rule: nonzero; stroke: none; --darkreader-inline-fill: #e8e6e3; --darkreader-inline-stroke: none;" id="path3009" data-darkreader-inline-fill="" data-darkreader-inline-stroke=""/><path inkscape:connector-curvature="0" d="m 347.37931,179.78674 -7.13181,0 0,33.55698 c 0,0 0.17135,3.06334 0.34702,4.14029 0.1755,1.07695 1.74305,3.63371 5.83148,3.63371 l 7.39108,-0.1436 0,-4.3038 c 0,0 -2.00233,0.14358 -3.21091,0.14358 -1.22453,0 -2.70834,-0.0797 -2.95962,-2.14992 -0.2674,-2.06614 -0.2674,-4.53515 -0.2674,-4.53515 l 0,-19.76006 8.05719,0 0,-4.29983 -8.05719,0 0,-6.2822" style="fill: rgb(0, 0, 0); fill-opacity: 1; fill-rule: nonzero; stroke: none; --darkreader-inline-fill: #e8e6e3; --darkreader-inline-stroke: none;" id="path3011" data-darkreader-inline-fill="" data-darkreader-inline-stroke=""/><path inkscape:connector-curvature="0" d="m 416.24033,221.11772 7.1322,0 0,-35.04676 -7.1322,0 0,35.04676 z" style="fill: rgb(0, 0, 0); fill-opacity: 1; fill-rule: nonzero; stroke: none; --darkreader-inline-fill: #e8e6e3; --darkreader-inline-stroke: none;" id="path3013" data-darkreader-inline-fill="" data-darkreader-inline-stroke=""/><path inkscape:connector-curvature="0" d="m 416.24033,181.76912 7.1322,0 0,-6.36316 -7.1322,0 0,6.36316 z" style="fill: rgb(0, 0, 0); fill-opacity: 1; fill-rule: nonzero; stroke: none; --darkreader-inline-fill: #e8e6e3; --darkreader-inline-stroke: none;" id="path3015" data-darkreader-inline-fill="" data-darkreader-inline-stroke=""/><path inkscape:connector-curvature="0" d="m 445.91632,185.76979 c 4.85427,0 8.6196,1.08493 10.64187,2.72031 2.04222,1.63935 4.55112,5.09757 4.55112,15.10522 0,10.00767 -2.5089,13.4619 -4.55112,15.10524 -2.02227,1.63537 -5.7876,2.72827 -10.64187,2.72827 -4.86622,0 -8.61561,-1.0929 -10.65384,-2.72827 -2.03823,-1.64334 -4.53515,-5.09757 -4.53515,-15.10524 0,-10.00765 2.49692,-13.46587 4.53515,-15.10522 2.03823,-1.63538 5.78762,-2.72031 10.65384,-2.72031 z m -4.89015,6.72098 c -0.98123,1.20858 -2.17783,3.74938 -2.17783,11.10455 0,7.35119 1.1966,9.89599 2.17783,11.10058 0.97722,1.1966 2.78012,2.00632 5.11352,2.00632 2.33738,0 4.13229,-0.80972 5.12151,-2.00632 0.97722,-1.20459 2.17384,-3.74939 2.17384,-11.10058 0,-7.35517 -1.19662,-9.89597 -2.17384,-11.10455 -0.98922,-1.2006 -2.78413,-2.00234 -5.12151,-2.00234 -2.3334,0 -4.1363,0.80174 -5.11352,2.00234" style="fill: rgb(0, 0, 0); fill-opacity: 1; fill-rule: nonzero; stroke: none; --darkreader-inline-fill: #e8e6e3; --darkreader-inline-stroke: none;" id="path3017" data-darkreader-inline-fill="" data-darkreader-inline-stroke=""/><path inkscape:connector-curvature="0" d="m 475.88746,190.99102 6.9962,-0.29517 c 1.8308,0 3.98471,0.4946 5.02976,1.81884 0.97323,1.24848 1.5875,2.73626 1.5875,5.13348 l 0,23.42966 7.14377,0 0,-24.01999 c 0,-4.54315 -1.40003,-7.18367 -3.4981,-8.84297 -2.99153,-2.37328 -8.35235,-2.14593 -8.35235,-2.14593 l -15.98275,0.2872 0,34.72169 7.07597,0 0,-30.08681" style="fill: rgb(0, 0, 0); fill-opacity: 1; fill-rule: nonzero; stroke: none; --darkreader-inline-fill: #e8e6e3; --darkreader-inline-stroke: none;" id="path3019" data-darkreader-inline-fill="" data-darkreader-inline-stroke=""/><path inkscape:connector-curvature="0" d="m 402.03257,179.78674 -7.13581,0 0,33.55698 c 0,0 0.16753,3.06334 0.33905,4.14029 0.17966,1.07695 1.73509,3.63371 5.83946,3.63371 l 7.39108,-0.1436 0,-4.3038 c 0,0 -2.00631,0.14358 -3.21888,0.14358 -1.21257,0 -2.70036,-0.0797 -2.95962,-2.14992 -0.25528,-2.06614 -0.25528,-4.53515 -0.25528,-4.53515 l 0,-19.76006 8.03725,0 0,-4.29983 -8.03725,0 0,-6.2822" style="fill: rgb(0, 0, 0); fill-opacity: 1; fill-rule: nonzero; stroke: none; --darkreader-inline-fill: #e8e6e3; --darkreader-inline-stroke: none;" id="path3021" data-darkreader-inline-fill="" data-darkreader-inline-stroke=""/><path inkscape:connector-curvature="0" d="m 259.12119,197.64817 c 0,-2.39722 -0.61027,-3.885 -1.59149,-5.13348 -1.04504,-1.32424 -3.19097,-1.81884 -5.02577,-1.81884 l -9.40937,0.29517 0,-4.63488 11.32394,-0.2872 c 0,0 5.36082,-0.22751 8.35635,2.14593 2.09008,1.6593 3.47814,4.29982 3.47814,8.84297 l 0,23.68493 -13.67328,0.29517 c 0,0 -6.19047,0.0225 -9.30964,-1.24049 -3.03939,-1.23649 -4.6987,-4.63089 -4.6987,-9.34154 0,-4.54713 1.39206,-7.18766 3.48214,-8.84695 2.99551,-2.37728 8.35236,-2.14195 8.35236,-2.14195 l 4.36763,0 0,4.03658 -2.44906,0 c -1.83482,0 -3.72147,0.33904 -4.77049,1.66329 -0.97725,1.2365 -1.49976,2.30946 -1.49976,4.70667 0,3.1471 0.61027,4.55111 2.09009,5.62008 1.30828,0.95331 3.64966,1.16073 6.26226,1.16073 l 4.71465,-0.28719 0,-18.719" style="fill: rgb(0, 0, 0); fill-opacity: 1; fill-rule: nonzero; stroke: none; --darkreader-inline-fill: #e8e6e3; --darkreader-inline-stroke: none;" id="path3023" data-darkreader-inline-fill="" data-darkreader-inline-stroke=""/><path inkscape:connector-curvature="0" d="m 379.43255,197.64817 c 0,-2.39722 -0.59831,-3.885 -1.57953,-5.13348 -1.057,-1.32424 -3.20293,-1.81884 -5.02576,-1.81884 l -9.40537,0.29517 0,-4.63488 11.31595,-0.2872 c 0,0 5.35684,-0.22751 8.34837,2.14593 2.09008,1.6593 3.48613,4.29982 3.48613,8.84297 l 0,23.68493 -13.67329,0.29517 c 0,0 -6.19845,0.0225 -9.30964,-1.24049 -3.04338,-1.23649 -4.70668,-4.63089 -4.70668,-9.34154 0,-4.54713 1.40403,-7.18766 3.48214,-8.84695 2.99154,-2.37728 8.36033,-2.14195 8.36033,-2.14195 l 4.36365,0 0,4.03658 -2.45305,0 c -1.82285,0 -3.72146,0.33904 -4.75853,1.66329 -0.98123,1.2365 -1.50774,2.30946 -1.50774,4.70667 0,3.1471 0.61427,4.55111 2.09009,5.62008 1.30431,0.95331 3.65765,1.16073 6.27024,1.16073 l 4.70269,-0.28719 0,-18.719" style="fill: rgb(0, 0, 0); fill-opacity: 1; fill-rule: nonzero; stroke: none; --darkreader-inline-fill: #e8e6e3; --darkreader-inline-stroke: none;" id="path3025" data-darkreader-inline-fill="" data-darkreader-inline-stroke=""/><path inkscape:connector-curvature="0" d="m 560.6435,181.31042 c 0.0957,5.26509 -0.16338,8.04124 -1.93054,10.68973 -1.56358,2.31345 -4.65083,4.43943 -11.4795,4.43943 l -8.47201,-0.26325 c -1.33223,0.016 -4.80639,0.41482 -6.44176,2.18182 -1.41201,1.49976 -1.50374,2.64053 -1.65931,6.68109 l 0,11.81455 28.80644,0 0,5.80755 -31.48684,0 -1.50375,-0.0192 c -2.14193,0 -4.24797,-1.45188 -4.24797,-4.35567 l 0,-8.81503 c 0.1436,-10.31878 0.88948,-11.80258 3.12713,-14.49895 1.55162,-1.86272 5.18533,-3.9568 9.62078,-4.18017 0.86954,-0.0479 2.51687,-0.15955 4.79842,-0.076 1.69119,0.0559 3.3545,0.0996 4.09639,0.10752 3.9209,0.0479 5.35284,-0.67408 6.42581,-2.08209 1.22454,-1.58751 1.8707,-3.45023 1.8707,-6.50957 0,-2.85194 -0.57438,-5.57222 -1.66728,-6.82469 -1.32824,-1.4439 -2.58468,-2.41315 -6.27822,-2.42114 -9.30166,-0.0255 -20.17886,0.21539 -20.17886,0.21539 l 0,-5.46452 c 0,0 10.62591,-0.4627 21.4672,-0.62225 6.75289,-0.1037 10.45841,1.67925 12.35304,4.14427 1.98638,2.58468 2.70036,5.0138 2.78013,10.05155" style="fill: rgb(0, 0, 0); fill-opacity: 1; fill-rule: nonzero; stroke: none; --darkreader-inline-fill: #e8e6e3; --darkreader-inline-stroke: none;" id="path3031" data-darkreader-inline-fill="" data-darkreader-inline-stroke=""/></g>
</svg>