<svg version="1.1" id="Layer_1" x="0px" y="0px" enable-background="new -113 -16.738 1000 215.477" xml:space="preserve" sodipodi:docname="PlayStation_4.svg" inkscape:version="1.1.2 (b8e25be833, 2022-02-05)" xmlns:inkscape="http://www.inkscape.org/namespaces/inkscape" xmlns:sodipodi="http://sodipodi.sourceforge.net/DTD/sodipodi-0.dtd" xmlns="http://www.w3.org/2000/svg" xmlns:svg="http://www.w3.org/2000/svg" xmlns:rdf="http://www.w3.org/1999/02/22-rdf-syntax-ns#" xmlns:cc="http://creativecommons.org/ns#" xmlns:dc="http://purl.org/dc/elements/1.1/" viewBox="-113.02 -16.75 962.7 215.5"><title id="title279">PlayStation 4 (2014)</title><defs id="defs25"/><sodipodi:namedview id="namedview23" pagecolor="#ffffff" bordercolor="#666666" borderopacity="1.0" inkscape:pageshadow="2" inkscape:pageopacity="0.0" inkscape:pagecheckerboard="0" showgrid="false" inkscape:zoom="1.386" inkscape:cx="500.36075" inkscape:cy="107.86436" inkscape:window-width="1920" inkscape:window-height="1001" inkscape:window-x="-9" inkscape:window-y="-9" inkscape:window-maximized="1" inkscape:current-layer="g20"/>
<g id="g20">
	<path d="M-8.873-16.738v201.067l45.43,14.409V30.165c0-7.944,3.538-13.229,9.202-11.39c7.405,2.067,8.842,9.386,8.842,17.23v67.32   c28.268,13.719,50.542,0,50.542-36.205c0-36.956-13.068-53.433-51.458-66.694C38.552-4.628,10.482-13.161-8.873-16.738z" id="path2"/>
	<path d="M45.207,169.358l72.97-26.025c8.25-3.054,9.53-7.223,2.854-9.421c-6.782-2.231-18.899-1.606-27.25,1.411l-48.574,17.166   v-27.407l2.784-0.918c0,0,14.05-4.989,33.831-7.123c19.714-2.166,43.922,0.295,62.957,7.452   c21.416,6.826,23.809,16.771,18.404,23.697c-5.502,6.858-18.833,11.816-18.833,11.816l-99.142,35.681V169.358z" id="path4"/>
	<path d="M-92.097,166.574c-21.977-6.138-25.611-19.103-15.625-26.586c9.237-6.828,24.993-11.979,24.993-11.979l65.08-23.239v26.455   l-46.803,16.806c-8.29,2.985-9.53,7.154-2.849,9.351c6.777,2.267,18.864,1.675,27.154-1.411l22.499-8.137v23.629   c-1.443,0.232-3.078,0.496-4.551,0.759C-44.606,175.96-68.516,174.417-92.097,166.574z" id="path6"/>
	
	<path d="M645.737,24.519h-85.521c-24.796,0-36.947,15.328-36.947,35.251v60.622c0,12.341-5.826,21.235-18.176,21.235h-80.379   c-0.491,0-0.921,0.396-0.921,0.919v12.179c0,0.49,0.43,0.921,0.921,0.921h89.682c24.791,0,36.979-15.298,36.979-35.221V59.77   c0-12.341,5.826-21.235,18.18-21.235h76.214c0.521,0,0.917-0.428,0.917-0.921V25.437C646.617,24.945,646.223,24.519,645.737,24.519   z" id="path10"/>
	<path d="M393.079,24.554H238.353c-0.526,0-0.916,0.427-0.916,0.918v12.176c0,0.526,0.425,0.921,0.916,0.921h145.423   c12.315,0,18.171,8.896,18.171,21.236s-5.826,21.235-18.171,21.235H268.747c-17.852,0-31.31,15.032-31.31,34.988v38.731   c0,0.526,0.425,0.92,0.916,0.92h26.233c0.526,0,0.917-0.43,0.917-0.92v-38.731c0-12.341,7.11-20.973,17.294-20.973h110.282   c24.795,0,36.942-15.263,36.942-35.219C430.022,39.882,417.905,24.554,393.079,24.554z" id="path12"/>
	<path d="M848.741,127.609l-26.237-0.032c-0.521,0-0.947-0.428-0.947-0.919V38.466c0-13.558-9.368-17.987-22.507-9.847   l-157.667,97.022c-6.199,3.808-8.259,8.105-6.787,11.291c1.28,2.757,4.687,4.659,11.534,4.659h146.44   c0.391,0.033,0.719,0.329,0.815,0.691v12.371c0,0.526,0.426,0.956,0.916,0.956h26.339c0.491,0,0.916-0.43,0.916-0.956v-12.11   c0-0.523,0.426-0.952,0.916-0.952h26.233c0.526,0,0.951-0.427,0.951-0.918V128.53C849.693,128.037,849.268,127.609,848.741,127.609   z M793.456,126.626c0,0.523-0.43,0.951-0.92,0.951H669.773c-0.977,0-1.503-0.264-1.666-0.623c-0.131-0.592,0.163-0.984,0.886-1.51   l122.167-75.358c0.854-0.526,2.262-0.429,2.262,1.246v75.294H793.456z" id="path14"/>
	
	
</g>
<metadata id="metadata277"><rdf:RDF><cc:Work rdf:about=""><dc:title>PlayStation 4 (2014)</dc:title></cc:Work></rdf:RDF></metadata></svg>