<svg version="1.1" id="Layer_1" x="0px" y="0px" enable-background="new -112.5 -10.6 1000 215.199" xml:space="preserve" sodipodi:docname="PlayStation_5.svg" inkscape:version="1.1.2 (b8e25be833, 2022-02-05)" xmlns:inkscape="http://www.inkscape.org/namespaces/inkscape" xmlns:sodipodi="http://sodipodi.sourceforge.net/DTD/sodipodi-0.dtd" xmlns="http://www.w3.org/2000/svg" xmlns:svg="http://www.w3.org/2000/svg" xmlns:rdf="http://www.w3.org/1999/02/22-rdf-syntax-ns#" xmlns:cc="http://creativecommons.org/ns#" xmlns:dc="http://purl.org/dc/elements/1.1/" viewBox="-112.5 -10.63 959.15 215.27"><title id="title269">PlayStation 5 (2020)</title><defs id="defs25"/><sodipodi:namedview id="namedview23" pagecolor="#ffffff" bordercolor="#666666" borderopacity="1.0" inkscape:pageshadow="2" inkscape:pageopacity="0.0" inkscape:pagecheckerboard="0" showgrid="false" inkscape:zoom="1.386" inkscape:cx="500.36075" inkscape:cy="107.86436" inkscape:window-width="1920" inkscape:window-height="1001" inkscape:window-x="-9" inkscape:window-y="-9" inkscape:window-maximized="1" inkscape:current-layer="g20"/>
<g id="g20">
	<path d="M503.173,161.562c19.264,0,34.868-15.543,34.868-34.715V67.149c0-11.537,9.422-20.912,21.011-20.912h67.641   c0.489,0,0.923-0.428,0.923-0.918V33.387c0-0.491-0.434-0.918-0.923-0.918h-81.506c-19.265,0-34.868,15.539-34.868,34.714v59.694   c0,11.541-9.423,20.915-21.012,20.915h-66.685c-0.491,0-0.925,0.425-0.925,0.92v11.931c0,0.49,0.434,0.919,0.925,0.919H503.173z" id="path2"/>
	<path d="M655.535,80.949c0-17.405,0-40.48,0-47.563c0-0.491,0.43-0.918,0.925-0.918h184.18c0.494,0,0.919,0.427,0.919,0.918v11.933   c0,0.49-0.425,0.918-0.919,0.918H684.152c-0.489,0-0.919,0.426-0.919,0.917v31.011c0,5.473,4.475,9.933,9.979,9.933H809.72   c20.382,0,36.914,16.455,36.914,36.748c0,20.289-16.532,36.746-36.914,36.746H656.46c-0.495,0-0.925-0.424-0.925-0.919v-11.93   c0-0.491,0.43-0.92,0.925-0.92c34.842,0,139.394,0,139.394,0c12.711,0,23.021-10.228,23.052-22.881   c0.031-12.688-10.507-23.048-23.252-23.048H676.512C664.958,101.864,655.535,92.521,655.535,80.949z" id="path4"/>
	<path d="M382.052,88.068c11.594,0,21.011-9.376,21.011-20.914c0-11.537-9.417-20.913-21.011-20.913H240.753   c-0.499,0-0.924-0.427-0.924-0.918V33.391c0-0.49,0.425-0.917,0.924-0.917h155.161c19.265,0,34.878,15.538,34.878,34.713   c0,19.177-15.613,34.717-34.878,34.717H288.568c-11.593,0-21.016,9.37-21.016,20.91v37.864c0,0.49-0.425,0.914-0.919,0.914h-25.85   c-0.495,0-0.924-0.424-0.924-0.914c0-10.294,0-37.864,0-37.864c0-19.176,15.613-34.712,34.877-34.712L382.052,88.068z" id="path6"/>
	<path d="M-7.805-10.6v200.809L37.869,204.6V36.243c0-7.933,3.555-13.211,9.251-11.374c7.443,2.064,8.892,9.373,8.892,17.208v67.234   c28.419,13.7,50.814,0,50.814-36.159c0-36.909-13.144-53.364-51.733-66.608C39.875,1.495,11.653-6.994-7.805-10.6z" id="path8"/>
	<path d="M46.56,175.262l73.371-25.994c8.297-3.047,9.58-7.211,2.863-9.404c-6.812-2.232-18.997-1.611-27.395,1.405L46.56,158.414   v-27.373l2.802-0.915c0,0,14.128-4.982,34.015-7.114c19.825-2.168,44.163,0.293,63.292,7.438   c21.537,6.821,23.94,16.751,18.507,23.669c-5.53,6.848-18.932,11.799-18.932,11.799L46.56,201.553V175.262z" id="path10"/>
	<path d="M-91.482,172.472c-22.097-6.129-25.753-19.075-15.709-26.549c9.286-6.821,25.126-11.966,25.126-11.966l65.433-23.209   v26.423l-47.058,16.781c-8.332,2.986-9.584,7.146-2.863,9.343c6.817,2.265,18.967,1.673,27.298-1.409l22.623-8.126v23.599   c-1.449,0.228-3.095,0.495-4.58,0.753C-43.733,181.851-67.773,180.31-91.482,172.472z" id="path12"/>
	
	
	
</g>
<metadata id="metadata267"><rdf:RDF><cc:Work rdf:about=""><dc:title>PlayStation 5 (2020)</dc:title></cc:Work></rdf:RDF></metadata></svg>