<?xml version="1.0" encoding="UTF-8" standalone="no"?>
<svg
   height="270.03082"
   style="clip-rule:evenodd;fill-rule:evenodd;image-rendering:optimizeQuality;shape-rendering:geometricPrecision;text-rendering:geometricPrecision"
   viewBox="0 0 349.67727 270.03082"
   width="349.67728"
   xml:space="preserve"
   version="1.1"
   id="svg1266"
   sodipodi:docname="PlayStation Symbol (1994, Color).svg"
   inkscape:version="1.2 (dc2aedaf03, 2022-05-15)"
   inkscape:export-filename="C:\Users\tjdru\OneDrive\Pictures\Logos\Games\playstationsymbol1994.png"
   inkscape:export-xdpi="259.69556"
   inkscape:export-ydpi="259.69556"
   xmlns:inkscape="http://www.inkscape.org/namespaces/inkscape"
   xmlns:sodipodi="http://sodipodi.sourceforge.net/DTD/sodipodi-0.dtd"
   xmlns="http://www.w3.org/2000/svg"
   xmlns:svg="http://www.w3.org/2000/svg"
   xmlns:rdf="http://www.w3.org/1999/02/22-rdf-syntax-ns#"
   xmlns:cc="http://creativecommons.org/ns#"
   xmlns:dc="http://purl.org/dc/elements/1.1/"><metadata
     id="metadata1270"><rdf:RDF><cc:Work
         rdf:about=""><dc:format>image/svg+xml</dc:format><dc:type
           rdf:resource="http://purl.org/dc/dcmitype/StillImage" /></cc:Work></rdf:RDF></metadata><sodipodi:namedview
     pagecolor="#ffffff"
     bordercolor="#666666"
     borderopacity="1"
     objecttolerance="10"
     gridtolerance="10"
     guidetolerance="10"
     inkscape:pageopacity="0"
     inkscape:pageshadow="2"
     inkscape:window-width="1920"
     inkscape:window-height="1017"
     id="namedview1268"
     showgrid="false"
     showguides="false"
     inkscape:guide-bbox="true"
     inkscape:snap-bbox="true"
     inkscape:object-paths="false"
     inkscape:snap-intersection-paths="false"
     inkscape:snap-global="false"
     inkscape:zoom="1.4142136"
     inkscape:cx="262.33662"
     inkscape:cy="108.18734"
     inkscape:window-x="-8"
     inkscape:window-y="-8"
     inkscape:window-maximized="1"
     inkscape:current-layer="layer4"
     inkscape:showpageshadow="2"
     inkscape:pagecheckerboard="0"
     inkscape:deskcolor="#d1d1d1" /><defs
     id="defs1253"><style
       type="text/css"
       id="style1251">
   <![CDATA[
    .fil7 {fill:none}
    .fil5 {fill:#0688C7}
    .fil2 {fill:#0689C7}
    .fil4 {fill:#40B7A5}
    .fil1 {fill:#42B7A5}
    .fil0 {fill:#F5C136}
    .fil3 {fill:#F5C535}
    .fil6 {fill:#ED3237}
   ]]>
  </style></defs><g
     inkscape:groupmode="layer"
     id="layer4"
     inkscape:label="Layer 1"
     transform="translate(-417.98084,-795.90958)"
     style="display:inline;opacity:1"><g
       id="g1718"><path
         inkscape:export-ydpi="96"
         inkscape:export-xdpi="96"
         inkscape:connector-curvature="0"
         style="clip-rule:evenodd;display:inline;overflow:visible;fill:#fdb913;fill-opacity:1;fill-rule:evenodd;stroke:none;stroke-width:0.494645;image-rendering:optimizeQuality;shape-rendering:geometricPrecision;text-rendering:geometricPrecision"
         id="path9-8-2"
         d="m 524.0021,1007.2726 -15.8653,5.67 c -13.61796,3.91 -25.71662,2.8273 -33.2045,0.2699 -7.48789,-2.5569 -6.85274,-5.8092 2.94671,-9.9928 l 15.11628,-5.96149 -22.84095,-9.60718 -25.1345,-6.11339 c -15.12139,6.18203 -27.039,13.3496 -27.039,22.84886 0,13.321 25.92401,23.0899 53.20517,27.5169 25.43831,4.1278 55.40722,2.7172 77.35195,-2.4952 l 27.60646,-6.4283 -21.15682,-8.8666 z m 81.70767,58.6678 47.26791,-16.8306 -22.23576,-9.5102 -25.46381,-6.2786 -48.91086,17.5924 29.46054,7.1441 z"
         sodipodi:nodetypes="cccccccccccccccccccc" /><path
         inkscape:export-ydpi="96"
         inkscape:export-xdpi="96"
         inkscape:connector-curvature="0"
         style="clip-rule:evenodd;display:inline;overflow:visible;fill:#3777bc;fill-opacity:1;fill-rule:evenodd;stroke:none;stroke-width:0.494645;image-rendering:optimizeQuality;shape-rendering:geometricPrecision;text-rendering:geometricPrecision"
         id="path11-4-9"
         d="m 740.87006,1017.3563 c 13.21569,-4.9278 29.32664,-13.9757 26.45129,-26.0307 -2.45877,-10.3087 -32.90782,-26.1315 -72.07638,-28.22612 -20.10509,-1.07512 -40.57977,0.27855 -65.63868,7.08072 -7.59058,2.06041 -23.8958,7.53936 -23.8958,7.53936 l 22.3169,7.99431 30.04849,7.81368 23.31134,-8.20248 c 6.68938,-2.35374 14.83389,-2.85986 23.55753,-2.16782 8.72364,0.69214 17.62737,6.62471 6.01549,11.66116 l -20.29444,7.79059 23.90998,8.7 z m -186.50521,-74.34032 -30.63825,9.87182 20.31389,10.18398 28.99761,5.53122 31.25975,-10.9827 z"
         sodipodi:nodetypes="ccccccccccccccccccc" /><path
         inkscape:export-ydpi="96"
         inkscape:export-xdpi="96"
         inkscape:connector-curvature="0"
         style="clip-rule:evenodd;display:inline;overflow:visible;fill:#00b49d;fill-opacity:1;fill-rule:evenodd;stroke:none;stroke-width:0.494645;image-rendering:optimizeQuality;shape-rendering:geometricPrecision;text-rendering:geometricPrecision"
         id="path13-7-3"
         d="m 652.97768,1049.1098 87.89238,-31.7535 -50.20569,-14.7473 -85.38626,30.712 z m -76.83326,-26.1296 -52.14158,-15.7069 81.70693,-29.55374 52.36611,15.80799 z m -83.14843,-25.7215 80.04135,-28.65543 -49.31074,-15.71547 -78.70606,28.65033 z"
         sodipodi:nodetypes="ccccccccccccccc" /><path
         inkscape:export-ydpi="96"
         inkscape:export-xdpi="96"
         inkscape:connector-curvature="0"
         style="clip-rule:evenodd;display:inline;overflow:visible;fill:#ed1c24;fill-opacity:1;fill-rule:evenodd;stroke:none;stroke-width:0.494645;image-rendering:optimizeQuality;shape-rendering:geometricPrecision;text-rendering:geometricPrecision"
         id="path7-8-5"
         d="m 605.70977,1065.9404 -57.17106,-17.4111 V 795.90958 l 46.3214,11.74294 c 59.03607,17.61685 97.01367,30.07151 97.01367,91.11116 0,47.64537 -25.72399,65.18597 -63.65609,48.3741 V 858.1302 c 0,-20.08383 -22.27654,-21.99863 -22.27654,-6.74942 z"
         sodipodi:nodetypes="ccccccccc" /></g></g></svg>
