<?xml version="1.0" encoding="UTF-8" standalone="no"?>
<!-- Creator: CorelDRAW -->

<svg
   xmlns:dc="http://purl.org/dc/elements/1.1/"
   xmlns:cc="http://creativecommons.org/ns#"
   xmlns:rdf="http://www.w3.org/1999/02/22-rdf-syntax-ns#"
   xmlns:svg="http://www.w3.org/2000/svg"
   xmlns="http://www.w3.org/2000/svg"
   xmlns:sodipodi="http://sodipodi.sourceforge.net/DTD/sodipodi-0.dtd"
   xmlns:inkscape="http://www.inkscape.org/namespaces/inkscape"
   xml:space="preserve"
   width="697.79498"
   height="207.832"
   style="fill-rule:evenodd"
   viewBox="0 0 196.93325 58.654809"
   id="svg2"
   version="1.1"
   inkscape:version="0.91 r13725"
   sodipodi:docname="Will U.svg"><metadata
     id="metadata22"><rdf:RDF><cc:Work
         rdf:about=""><dc:format>image/svg+xml</dc:format><dc:type
           rdf:resource="http://purl.org/dc/dcmitype/StillImage" /><dc:title></dc:title></cc:Work></rdf:RDF></metadata><sodipodi:namedview
     pagecolor="#ffffff"
     bordercolor="#666666"
     borderopacity="1"
     objecttolerance="10"
     gridtolerance="10"
     guidetolerance="10"
     inkscape:pageopacity="0"
     inkscape:pageshadow="2"
     inkscape:window-width="1680"
     inkscape:window-height="931"
     id="namedview20"
     showgrid="false"
     fit-margin-top="0.5"
     fit-margin-left="0.5"
     fit-margin-right="0.5"
     fit-margin-bottom="0.5"
     inkscape:zoom="0.82614138"
     inkscape:cx="247.31829"
     inkscape:cy="-8.7944093"
     inkscape:window-x="0"
     inkscape:window-y="1"
     inkscape:window-maximized="1"
     inkscape:current-layer="_56610944" /><defs
     id="defs4"><style
       type="text/css"
       id="style6">
   
    .fil0 {fill:#02ABCA}
    .fil1 {fill:#8B8B8B;fill-rule:nonzero}
   
  </style></defs><g
     id="Capa_x0020_1"
     transform="translate(-5.8253916,-5.762604)"><metadata
       id="CorelCorpID_0Corel-Layer" /><g
       id="_56610944"><path
         id="_56666168"
         class="fil0"
         d="m 164.86989,25.954002 c 0,13.4272 15.875,11.5068 15.875,2.1167 l 0,-22.2249999 -15.875,0 0,20.1082999 z"
         style="fill:#009ac7;fill-opacity:1;stroke:none"
         inkscape:connector-curvature="0" /><path
         id="_56603080"
         class="fil0"
         d="m 142.99789,40.065102 c 0,6.6341 4.5822,10.5833 11.2889,10.5833 l 38.1,0 c 5.6587,0 10.2306,-3.9072 10.2306,-9.525 l 0,-27.8694 c 0,-3.3856997 -2.5233,-7.0554999 -5.6444,-7.0554999 l -8.8195,0 0,22.9304999 c 0,17.4161 -30.3389,17.282 -30.3389,0.3528 l 0,-23.6360999 -6.7028,0 c -4.3638,0 -8.1139,2.7649 -8.1139,7.0554999 l 0,27.1639 z"
         style="fill:#009ac7;fill-opacity:1;stroke:none"
         inkscape:connector-curvature="0" /><path
         id="_56604928"
         class="fil1"
         d="m 90.260792,12.433402 c 0,3.6214 3.0496,6.671 6.8616,6.671 4.002598,0 7.147498,-2.9544 7.147498,-6.671 0,-3.7166999 -3.1449,-6.6708999 -7.147498,-6.6708999 -3.812,0 -6.8616,2.9542 -6.8616,6.6708999 z"
         style="fill:#8b8b8b;fill-opacity:1;fill-rule:nonzero;stroke:none"
         inkscape:connector-curvature="0" /><polygon
         id="_56605920"
         class="fil1"
         points="103.363,63.8951 103.363,25.68 91.5455,25.68 91.5455,63.8951 "
         style="fill:#8b8b8b;fill-opacity:1;fill-rule:nonzero;stroke:none"
         transform="translate(-0.1411084,2.1255019e-6)" /><path
         id="_56605848"
         class="fil1"
         d="m 114.18089,12.433402 c 0,3.6214 3.1449,6.671 6.9569,6.671 3.9072,0 7.0521,-2.9544 7.0521,-6.671 0,-3.7166999 -3.1449,-6.6708999 -7.0521,-6.6708999 -3.812,0 -6.9569,2.9542 -6.9569,6.6708999 z"
         style="fill:#8b8b8b;fill-opacity:1;fill-rule:nonzero;stroke:none"
         inkscape:connector-curvature="0" /><polygon
         id="_56607936"
         class="fil1"
         points="127.283,63.8951 127.283,25.68 115.466,25.68 115.466,63.8951 "
         style="fill:#8b8b8b;fill-opacity:1;fill-rule:nonzero;stroke:none"
         transform="translate(-0.1411084,2.1255019e-6)" /><path
         id="_56607472"
         class="fil1"
         d="m 72.630392,9.0026021 -10.2924,40.5023999 c 0,0 -7.9098,-30.4006 -9.244,-34.7845 -1.2389,-4.2884 -3.9073,-6.1943999 -7.624,-6.1943999 -3.8119,0 -6.385,1.9059999 -7.7193,6.1943999 -1.2388,4.3839 -9.1487,34.7845 -9.1487,34.7845 l -10.3876,-40.5023999 -12.3890004,0 c 0,0 11.9125004,43.1706999 13.5326004,48.2215999 1.2388,3.9073 4.2885,7.0521 8.6722,7.0521 5.1461,0 7.5287,-3.7166 8.5769,-7.0521 1.1436,-3.4308 8.8629,-31.9254 8.8629,-31.9254 0,0 7.7192,28.4946 8.7676,31.9254 1.1436,3.3355 3.526,7.0521 8.577,7.0521 4.479,0 7.4333,-3.1448 8.7675,-7.0521 1.62,-5.0509 13.5326,-48.2215999 13.5326,-48.2215999 l -12.4843,0 z"
         style="fill:#8b8b8b;fill-opacity:1;fill-rule:nonzero;stroke:none"
         inkscape:connector-curvature="0" /></g></g></svg>