<?xml version="1.0" encoding="UTF-8" standalone="no"?>
<svg
   xmlns:dc="http://purl.org/dc/elements/1.1/"
   xmlns:cc="http://creativecommons.org/ns#"
   xmlns:rdf="http://www.w3.org/1999/02/22-rdf-syntax-ns#"
   xmlns:svg="http://www.w3.org/2000/svg"
   xmlns="http://www.w3.org/2000/svg"
   width="171.58173mm"
   height="82.054626mm"
   viewBox="0 0 171.58172 82.054625"
   version="1.1"
   id="svg8">
  <defs
     id="defs2">
	

		
		
		
		
		
	</defs>
  <metadata
     id="metadata5">
    <rdf:RDF>
      <cc:Work
         rdf:about="">
        <dc:format>image/svg+xml</dc:format>
        <dc:type
           rdf:resource="http://purl.org/dc/dcmitype/StillImage" />
        <dc:title></dc:title>
      </cc:Work>
    </rdf:RDF>
  </metadata>
  <g
     id="layer1"
     transform="translate(-899.71798,410.82947)">
    <g
       id="g1452"
       style="fill:#939598;fill-opacity:1">
      <path
         id="path8700"
         class="st0"
         d="m 1018.1385,-401.5067 c 0,5.12397 4.3412,9.32277 9.6786,9.32277 5.551,0 9.8921,-4.12764 9.8921,-9.32277 0,-5.2663 -4.3411,-9.32277 -9.8921,-9.32277 -5.3374,0 -9.6786,4.1988 -9.6786,9.32277"
         style="stroke-width:0.711662;fill:#939598;fill-opacity:1" />
      <path
         id="path8702"
         class="st0"
         d="m 1019.7042,-329.34417 h 16.5105 v -53.44582 h -16.5105 z"
         style="stroke-width:0.711662;fill:#939598;fill-opacity:1" />
    </g>
    <g
       id="g1445"
       style="fill:#939598;fill-opacity:1">
      <path
         id="path8704"
         class="st0"
         d="m 1051.729,-401.5067 c 0,5.12397 4.3411,9.32277 9.6786,9.32277 5.5509,0 9.8921,-4.12764 9.8921,-9.32277 0,-5.2663 -4.3412,-9.32277 -9.8921,-9.32277 -5.3375,0 -9.6786,4.1988 -9.6786,9.32277"
         style="stroke-width:0.711662;fill:#939598;fill-opacity:1" />
      <path
         id="path8706"
         class="st0"
         d="m 1053.2946,-329.34417 h 16.5106 v -53.44582 h -16.5106 z"
         style="stroke-width:0.711662;fill:#939598;fill-opacity:1" />
    </g>
    <path
       id="path8708"
       class="st0"
       d="m 993.44386,-406.346 -14.5179,56.79063 c 0,0 -11.10193,-42.62856 -12.88109,-48.67768 -1.77915,-6.04913 -5.55096,-8.68228 -10.74609,-8.68228 -5.2663,0 -8.96694,2.63315 -10.7461,8.68228 -1.77915,6.04912 -12.88108,48.67768 -12.88108,48.67768 L 917.15369,-406.346 h -17.43571 c 0,0 16.72405,60.56243 19.00137,67.60789 1.77916,5.47979 5.97796,9.96327 12.16942,9.96327 7.11662,0 10.46143,-5.19514 11.95592,-9.96327 1.49449,-4.76814 12.38292,-44.76354 12.38292,-44.76354 0,0 10.88843,39.9954 12.38292,44.76354 1.56566,4.76813 4.91047,9.96327 11.95592,9.96327 6.19146,0 10.46143,-4.48348 12.24059,-9.96327 2.27732,-7.04546 19.00136,-67.60789 19.00136,-67.60789 z"
       style="stroke-width:0.711662;fill:#939598;fill-opacity:1" />
  </g>
  <style
     type="text/css"
     id="style1388">
	.st0{fill:#939598;}
</style>
  <style
     type="text/css"
     id="style1388-3">
	.st0{fill:#939598;}
</style>
</svg>
