<?xml version="1.0" encoding="utf-8"?>
<!-- Generator: Adobe Illustrator 23.1.0, SVG Export Plug-In . SVG Version: 6.00 Build 0)  -->
<svg version="1.1"
	 id="svg3009" inkscape:version="0.48.4 r9939" sodipodi:docname="Xbox_One_logo.svg" xmlns:cc="http://creativecommons.org/ns#" xmlns:dc="http://purl.org/dc/elements/1.1/" xmlns:inkscape="http://www.inkscape.org/namespaces/inkscape" xmlns:rdf="http://www.w3.org/1999/02/22-rdf-syntax-ns#" xmlns:sodipodi="http://sodipodi.sourceforge.net/DTD/sodipodi-0.dtd" xmlns:svg="http://www.w3.org/2000/svg"
	 xmlns="http://www.w3.org/2000/svg" xmlns:xlink="http://www.w3.org/1999/xlink" x="0px" y="0px" viewBox="0 0 170.2 33.2"
	 style="enable-background:new 0 0 170.2 33.2;" xml:space="preserve">
<style type="text/css">
	.st0{fill:#6B6B6B;}
	.st1{fill:#177D3E;}
	.st2{fill:url(#path3033_2_);}
	.st3{fill:#00A54D;}
	.st4{fill:url(#path3990_2_);}
	.st5{fill:#02A74D;}
	.st6{fill:url(#path4000_2_);}
	.st7{fill:url(#path4031_2_);}
	.st8{fill:url(#path4039_2_);}
</style>
<g id="g4201">
	<path id="path3017" class="st0" d="M124.1,5.5c-5.8,0-9.9,4.5-9.9,10.8c0,6.4,4.1,10.8,9.9,10.8c5.8,0,9.9-4.5,9.9-10.8
		C133.9,9.9,129.9,5.5,124.1,5.5 M124.1,24.9c-4.4,0-7.5-3.6-7.5-8.6c0-5.1,3.1-8.6,7.5-8.6c4.4,0,7.5,3.6,7.5,8.6
		C131.6,21.4,128.5,24.9,124.1,24.9"/>
	<polygon id="polygon3015" class="st0" points="150.6,5.9 150.6,23 138.1,5.9 136,5.9 136,26.7 138.3,26.7 138.3,10 150.6,26.7 
		152.9,26.7 152.9,5.9 	"/>
	<polygon id="polygon3019" class="st0" points="157.9,24.6 157.9,17 169.3,17 169.3,14.9 157.9,14.9 157.9,8 170,8 170,5.9 
		155.5,5.9 155.5,26.7 170.2,26.7 170.2,24.6 	"/>
</g>
<polygon id="polygon3021_1_" class="st1" points="107.4,26.6 100.7,17.6 94.1,26.6 91.4,26.6 99.4,15.7 92.1,5.8 94.8,5.8 
	100.7,13.9 106.7,5.8 109.4,5.8 102.1,15.7 110.1,26.6 "/>
<path id="path3023_1_" class="st1" d="M70.9,16.5c-0.4-0.4-0.9-0.7-1.4-0.9c1.5-0.8,2.5-2.4,2.5-4.2c0-1.3-0.5-5.6-6.7-5.6h-8.4v9
	h-2.8c-0.4,0.5-1.2,1.6-1.5,2.1h4.3v9.7h8.4c4.6,0,7.4-2.3,7.4-6.1C72.7,18.9,72.1,17.5,70.9,16.5 M59.2,8h6.1
	c1.7,0,4.4,0.4,4.4,3.3c0,2.2-1.6,3.5-4.4,3.5h-6.1V8z M65.3,24.4h-6.1v-7.6h6.1c2.3,0,5.1,0.6,5.1,3.6
	C70.4,23.9,67.2,24.4,65.3,24.4"/>
<path id="path3025_1_" class="st1" d="M83.6,5.3c-5.8,0-9.9,4.5-9.9,10.9S77.8,27,83.6,27s9.9-4.5,9.9-10.8
	C93.5,9.8,89.5,5.3,83.6,5.3 M83.6,24.8c-4.4,0-7.5-3.6-7.5-8.6c0-5.1,3.1-8.6,7.5-8.6s7.5,3.6,7.5,8.6
	C91.2,21.3,88.1,24.8,83.6,24.8"/>
<polygon id="polygon3027_1_" class="st1" points="55.7,26.6 47.8,15.7 55,5.8 52.3,5.8 46.4,13.9 40.5,5.8 37.7,5.8 45,15.7 
	37,26.6 39.8,26.6 46.4,17.6 53,26.6 "/>
<g id="g3055_1_" transform="translate(-1.2833333,0.93333333)">
	<g id="g3923_1_" transform="matrix(-1,0,0,1,61.715049,-34.927083)">
	</g>
	<g id="g4049_1_">
		<g id="g4160_1_" transform="translate(-2.125,35.625)">
			
				<radialGradient id="path3033_2_" cx="-15.8857" cy="125.1528" r="14.35" gradientTransform="matrix(-5.123986e-02 8.0198 8.7538 -5.211698e-02 -1076.182 110.8232)" gradientUnits="userSpaceOnUse">
				<stop  offset="0" style="stop-color:#FFFFFF"/>
				<stop  offset="1" style="stop-color:#000000"/>
			</radialGradient>
			<ellipse id="path3033_1_" class="st2" cx="20.2" cy="-19.9" rx="16.8" ry="16.6"/>
			<g id="g4126_1_" transform="matrix(0.98015316,0,0,0.99821202,0.42031523,0.17830061)">
				<g id="g4010_1_" transform="matrix(1.0075011,0,0,1.0008426,-0.23709798,0.02715301)">
					<g id="g3951_1_">
						<g id="g3917_1_" transform="translate(1.334375,-34.927083)">
							<path id="path3900_1_" inkscape:connector-curvature="0" sodipodi:nodetypes="ccccc" class="st3" d="M14.5,7.5
								c-1.8,2.3-9.6,11.4-8.9,17.6c0.5,0.6,1,1.2,1.6,1.7C7.1,22.1,12.7,17,17,13.1L14.5,7.5z"/>
						</g>
						<g id="g3988_1_" transform="translate(1.334375,-34.927083)">
							
								<linearGradient id="path3990_2_" gradientUnits="userSpaceOnUse" x1="-1.5721" y1="261.3575" x2="-5.5275" y2="256.7171" gradientTransform="matrix(0.9949 0 0 0.9999 14.3052 -241.9071)">
								<stop  offset="0" style="stop-color:#97CA43"/>
								<stop  offset="1" style="stop-color:#97CA43;stop-opacity:0"/>
							</linearGradient>
							<path id="path3990_1_" inkscape:connector-curvature="0" sodipodi:nodetypes="ccccc" class="st4" d="M14.5,7.5
								c-1.8,2.3-9.6,11.4-8.9,17.6c0.5,0.6,1,1.2,1.6,1.7C7.1,22.1,12.7,17,17,13.1L14.5,7.5z"/>
						</g>
						<g id="g3888_1_" transform="translate(1.196189,-34.89572)">
							<g id="g3876_1_">
								<path id="path3089_1_" inkscape:connector-curvature="0" sodipodi:nodetypes="cccccccc" class="st5" d="M10.1,0.6
									c-1,0.6-1.9,1.3-2.7,2c2.7,0.5,5.3,2.9,6.8,4.8c1.3,2,2,3.8,2.9,5.7c0.6-0.5,1.2-1,1.9-1.6V3.3C16.9,2.1,13.7,0.5,10.1,0.6
									L10.1,0.6z"/>
								
									<linearGradient id="path4000_2_" gradientUnits="userSpaceOnUse" x1="-1.3298" y1="250.207" x2="2.2941" y2="242.1637" gradientTransform="matrix(0.9949 0 0 0.9999 14.0285 -241.9071)">
									<stop  offset="0" style="stop-color:#97CA43"/>
									<stop  offset="1" style="stop-color:#97CA43;stop-opacity:0"/>
								</linearGradient>
								<path id="path4000_1_" inkscape:connector-curvature="0" sodipodi:nodetypes="cccccccc" class="st6" d="M10.1,0.6
									c-1,0.6-1.9,1.3-2.7,2c2.7,0.5,5.3,2.9,6.8,4.8c1.3,2,2,3.8,2.9,5.7c0.6-0.5,1.2-1,1.9-1.6V3.3C16.9,2.1,13.7,0.5,10.1,0.6
									L10.1,0.6z"/>
							</g>
						</g>
					</g>
				</g>
				<g id="g4021_1_" transform="matrix(-1.0041673,0,0,1.0016853,63.487785,0.05361018)">
					<g id="g4023_1_">
						<g id="g4025_1_" transform="translate(1.334375,-34.927083)">
							<path id="path4027_1_" inkscape:connector-curvature="0" sodipodi:nodetypes="ccccc" class="st3" d="M37.5,7.5
								c-1.8,2.3-9.6,11.4-8.9,17.6c0.5,0.6,1,1.2,1.6,1.7c-0.1-4.7,5.5-9.8,9.8-13.7L37.5,7.5z"/>
						</g>
						<g id="g4029_1_" transform="translate(1.334375,-34.927083)">
							
								<linearGradient id="path4031_2_" gradientUnits="userSpaceOnUse" x1="-2836.2947" y1="259.1302" x2="-2841.4529" y2="253.8062" gradientTransform="matrix(0.9884 0 0 1.0016 2835.9001 -241.1152)">
								<stop  offset="0" style="stop-color:#97CA43"/>
								<stop  offset="1" style="stop-color:#97CA43;stop-opacity:0"/>
							</linearGradient>
							<path id="path4031_1_" inkscape:connector-curvature="0" sodipodi:nodetypes="ccccc" class="st7" d="M37.5,7.5
								c-1.8,2.3-9.6,11.4-8.9,17.6c0.5,0.6,1,1.2,1.6,1.7c-0.1-4.7,5.5-9.8,9.8-13.7L37.5,7.5z"/>
						</g>
						<g id="g4033_1_" transform="translate(1.196189,-34.89572)">
							<g id="g4035_1_">
								<path id="path4037_1_" inkscape:connector-curvature="0" sodipodi:nodetypes="cccccccc" class="st5" d="M33.1,0.6
									c-1,0.6-1.9,1.3-2.7,2c2.7,0.5,5.3,2.9,6.8,4.8c1.3,2,2,3.8,2.9,5.7c0.6-0.5,1.2-1,1.9-1.6V3.3C40,2.1,36.7,0.5,33.1,0.6
									C33.1,0.6,33.1,0.6,33.1,0.6z"/>
								
									<linearGradient id="path4039_2_" gradientUnits="userSpaceOnUse" x1="-2830.6267" y1="247.0031" x2="-2827.531" y2="241.9599" gradientTransform="matrix(0.9884 0 0 1.0016 2835.9023 -241.1152)">
									<stop  offset="0" style="stop-color:#97CA43"/>
									<stop  offset="1" style="stop-color:#97CA43;stop-opacity:0"/>
								</linearGradient>
								<path id="path4039_1_" inkscape:connector-curvature="0" sodipodi:nodetypes="cccccccc" class="st8" d="M33.1,0.6
									c-1,0.6-1.9,1.3-2.7,2c2.7,0.5,5.3,2.9,6.8,4.8c1.3,2,2,3.8,2.9,5.7c0.6-0.5,1.2-1,1.9-1.6V3.3C40,2.1,36.7,0.5,33.1,0.6
									C33.1,0.6,33.1,0.6,33.1,0.6z"/>
							</g>
						</g>
					</g>
				</g>
			</g>
		</g>
	</g>
</g>
</svg>
