<?xml version="1.0" encoding="utf-8"?>
<!-- Generator: Adobe Illustrator 16.0.0, SVG Export Plug-In . SVG Version: 6.00 Build 0)  -->
<!DOCTYPE svg PUBLIC "-//W3C//DTD SVG 1.1//EN" "http://www.w3.org/Graphics/SVG/1.1/DTD/svg11.dtd">
<svg version="1.1" id="Layer_1" xmlns="http://www.w3.org/2000/svg" xmlns:xlink="http://www.w3.org/1999/xlink" x="0px" y="0px"
	 width="1000px" height="779.311px" viewBox="-112.5 -292.655 1000 779.311" enable-background="new -112.5 -292.655 1000 779.311"
	 xml:space="preserve">
<path d="M207.046,280.103h-33.298l-57.32-79.028l-57.321,79.028H25.809l73.962-101.987L31.614,84.143h33.297l51.516,71.02
	l51.508-71.02h33.305l-68.165,93.973L207.046,280.103z M379.89,224.385c0,17.2-5.705,30.939-16.945,40.827
	c-11.228,9.886-27.565,14.891-48.538,14.891h-91.723v-87.251h-43.582l18.13-25.001h25.451V84.149h87.891
	c19.692,0,35.021,4.741,45.527,14.069c10.514,9.349,15.849,21.787,15.849,36.982c0,18.843-8.521,33.135-25.357,42.483
	c10.856,4.203,19.18,10.399,24.751,18.406C377.022,204.247,379.89,213.77,379.89,224.385z M252.567,167.851h56.089
	c11.287,0,19.861-2.531,25.497-7.542c5.611-4.998,8.459-12.607,8.459-22.63c0-8.647-2.956-15.503-8.796-20.366
	c-5.859-4.862-14.318-7.341-25.153-7.341h-56.09v57.879H252.567z M349.738,223.832c0-10.277-3.104-18.104-9.214-23.236
	c-6.128-5.145-15.47-7.744-27.761-7.744h-60.19v61.436h60.19c11.934,0,21.182-2.66,27.492-7.893
	C346.546,241.175,349.738,233.584,349.738,223.832z M580.84,182.129c0,15.147-2.19,29.056-6.513,41.326
	c-4.331,12.283-10.925,23.275-19.571,32.685c-8.756,9.409-19.026,16.562-30.523,21.274c-11.476,4.694-24.515,7.086-38.727,7.086
	c-14.405,0-27.519-2.378-39.009-7.086c-11.495-4.699-21.666-11.865-30.231-21.261c-8.756-9.329-15.41-20.267-19.788-32.55
	c-4.371-12.285-6.586-26.226-6.586-41.461c0-15.14,2.215-29.074,6.586-41.399c4.378-12.318,11.032-23.391,19.788-32.886
	c8.565-9.322,18.736-16.407,30.231-21.068c11.478-4.659,24.604-7.017,39.009-7.017c14.212,0,27.251,2.358,38.727,7.017
	c11.497,4.648,21.761,11.746,30.523,21.068c8.66,9.495,15.248,20.567,19.577,32.886C578.65,153.061,580.84,166.976,580.84,182.129z
	 M420.859,182.129c0,23.048,5.961,41.555,17.732,54.971c11.584,13.591,27.357,20.481,46.909,20.481
	c19.544,0,35.317-6.891,46.902-20.481c11.591-13.241,17.464-31.728,17.464-54.957c0-23.235-5.881-41.824-17.464-55.246
	c-11.753-13.396-27.54-20.197-46.902-20.197c-19.37,0-35.15,6.801-46.909,20.197C426.826,140.676,420.859,159.257,420.859,182.129z
	 M675.216,178.128l68.156-93.979h-33.297l-51.516,71.026l-51.501-71.026h-33.304l68.163,93.979l-73.962,101.98h33.29l57.321-79.021
	l57.32,79.021h33.297L675.216,178.128z M387.5-161.92c0.182,0,0.411,0.155,0.531,0.262
	C436.705-124.571,520.037-32.852,494.625-6.943C466.01,18.147,428.53,33.355,387.5,33.355c-41.022,0-78.502-15.208-107.125-40.298
	c-25.418-25.909,57.913-117.639,106.587-154.715C387.083-161.756,387.312-161.92,387.5-161.92z M472.266-268.8
	c-24.919-14.833-51.926-23.855-84.779-23.855c-32.84,0-59.847,9.021-84.772,23.855c-0.288,0.162-0.403,0.505-0.275,0.805
	c0.141,0.299,0.464,0.353,0.787,0.279c31.514-6.819,79.385,20.441,83.925,23.175c0.102,0.064,0.208,0.127,0.336,0.127
	c0.142,0,0.249-0.063,0.351-0.127c4.532-2.734,52.397-29.994,83.917-23.175c0.33,0.074,0.653,0.02,0.78-0.279
	C472.684-268.295,472.57-268.639,472.266-268.8z M273.586-245.882c-0.275,0.139-0.512,0.337-0.721,0.553
	c-29.708,29.532-48.102,70.447-48.102,115.685c0,37.14,12.399,71.343,33.278,98.758c0.202,0.262,0.578,0.434,0.868,0.262
	c0.283-0.165,0.297-0.525,0.195-0.842c-12.405-38.418,51.011-131.56,83.776-170.608c0.121-0.138,0.222-0.293,0.222-0.472
	c0-0.235-0.127-0.408-0.282-0.545C293.178-252.545,276.321-247.292,273.586-245.882z M432.179-203.091
	c-0.153,0.138-0.275,0.31-0.275,0.545c0,0.179,0.102,0.334,0.215,0.472c32.759,39.049,96.182,132.19,83.783,170.608
	c-0.108,0.316-0.088,0.677,0.188,0.842c0.29,0.172,0.666,0,0.869-0.262c20.878-27.415,33.271-61.628,33.271-98.758
	c0-45.238-18.406-86.153-48.102-115.685c-0.208-0.216-0.443-0.414-0.72-0.553C498.673-247.292,481.817-252.545,432.179-203.091z
	 M37.561,349.916v40.119h68.669v17.66H37.561v42.632h77.62v19.026H16.44V330.896h98.741v19.02H37.561z M-11.025,405.204
	c-6.897-6.331-18.359-11.234-34.072-14.589l-11.995-2.52c-11.396-2.437-19.309-5.428-23.538-8.883
	c-4.183-3.18-6.311-7.954-6.311-14.184c0-6.108,2.384-10.877,7.085-14.177c4.721-3.327,11.644-5.011,20.595-5.011
	c11.51,0,19.97,2.102,25.136,6.256c5.151,4.149,8.087,10.716,8.734,19.538l0.021,0.188h20.912v-0.215
	c-0.264-13.563-5.005-24.381-14.11-32.132c-9.092-7.753-22.844-11.686-40.874-11.686c-14.945,0-26.974,3.441-35.735,10.224
	c-8.802,6.788-13.254,16.016-13.254,27.404s3.664,20.428,10.904,26.905c7.22,6.459,18.057,11.167,32.22,14.009l11.807,2.52
	c11.658,2.56,19.848,5.522,24.306,8.789c4.445,3.239,6.694,7.914,6.694,13.887c0,7.389-2.741,13.113-8.149,17.007
	c-5.421,3.886-13.295,5.872-23.391,5.872c-12.224,0-21.558-2.593-27.754-7.711c-6.176-5.105-9.402-12.885-9.598-23.107v-0.203
	H-112.5v0.217c0.122,15.88,5.328,28.139,15.457,36.408c10.123,8.271,24.454,12.446,42.625,12.446
	c16.736,0,30.024-3.731,39.514-11.085c9.489-7.369,14.304-17.606,14.304-30.415C-0.599,420.209-4.108,411.548-11.025,405.204z
	 M242.188,452.267l-1.36-21.525c-0.263-7.63-1.96-13.832-5.064-18.433c-3.011-4.458-7.786-7.711-14.19-9.691
	c7.071-2.357,12.654-6.386,16.608-11.981c4.068-5.758,6.135-12.944,6.135-21.343c0-11.907-4.296-21.39-12.756-28.179
	c-8.452-6.783-20.178-10.225-34.873-10.225h-60.398v138.45h21.12v-56.809h39.857c7.914,0,13.719,1.832,17.282,5.461
	c3.562,3.63,5.556,9.947,5.94,18.771l0.571,14.735c0.135,8.014,1.517,13.995,4.116,17.753l0.06,0.102h21.748l-0.175-0.316
	C244.377,464.942,242.827,459.305,242.188,452.267z M157.408,349.142h38.12c8.694,0,15.456,1.873,20.104,5.576
	c4.641,3.698,6.991,9.247,6.991,16.515c0,7.543-2.29,13.415-6.81,17.496c-4.524,4.083-10.822,6.156-18.736,6.156h-39.669V349.142
	L157.408,349.142z M263.396,469.354h21.12V330.896h-21.12V469.354z M404.365,349.916v-19.02h-98.734v138.457h98.734v-19.026h-77.62
	v-42.632h68.669v-17.66h-68.669v-40.119H404.365z M516.898,405.204c-6.896-6.331-18.366-11.234-34.071-14.589l-11.988-2.52
	c-11.402-2.437-19.328-5.428-23.539-8.883c-4.188-3.18-6.31-7.954-6.31-14.184c0-6.108,2.377-10.877,7.077-14.177
	c4.722-3.327,11.646-5.011,20.597-5.011c11.51,0,19.97,2.102,25.127,6.256c5.159,4.149,8.103,10.716,8.742,19.538l0.007,0.188
	h20.913v-0.215c-0.264-13.563-5.005-24.381-14.104-32.132c-9.099-7.753-22.846-11.686-40.875-11.686
	c-14.944,0-26.973,3.441-35.742,10.224c-8.789,6.788-13.24,16.016-13.24,27.404s3.67,20.428,10.904,26.905
	c7.219,6.459,18.063,11.167,32.219,14.009l11.807,2.52c11.665,2.56,19.834,5.522,24.313,8.789c4.438,3.239,6.688,7.914,6.688,13.887
	c0,7.389-2.741,13.113-8.144,17.007c-5.421,3.886-13.301,5.872-23.402,5.872c-12.211,0-21.552-2.593-27.742-7.711
	c-6.189-5.105-9.416-12.885-9.604-23.107v-0.203h-21.106v0.217c0.12,15.88,5.327,28.139,15.463,36.408
	c10.116,8.271,24.454,12.446,42.612,12.446c16.742,0,30.03-3.731,39.52-11.085c9.49-7.369,14.298-17.606,14.298-30.415
	C527.311,420.209,523.808,411.548,516.898,405.204z M741.71,486.655h-10.562V313.595h10.562V486.655z M645.03,397.296l48.155-66.399
	H669.66l-36.396,50.182l-36.402-50.182h-23.524l48.168,66.399l-52.27,72.058h23.524l40.497-55.839l40.497,55.839h23.526
	L645.03,397.296z M877.069,405.204c-6.896-6.331-18.36-11.234-34.059-14.589l-12.002-2.52c-11.402-2.437-19.309-5.428-23.532-8.883
	c-4.188-3.18-6.31-7.954-6.31-14.184c0-6.108,2.376-10.877,7.077-14.177c4.722-3.327,11.646-5.011,20.597-5.011
	c11.502,0,19.969,2.102,25.134,6.256c5.152,4.149,8.089,10.716,8.729,19.538l0.013,0.188h20.911v-0.215
	c-0.262-13.563-4.998-24.381-14.102-32.132c-9.1-7.753-22.853-11.686-40.876-11.686c-14.943,0-26.972,3.441-35.741,10.224
	c-8.782,6.788-13.247,16.016-13.247,27.404s3.677,20.428,10.904,26.905c7.226,6.459,18.069,11.167,32.225,14.009l11.808,2.52
	c11.665,2.56,19.834,5.522,24.313,8.789c4.432,3.239,6.688,7.914,6.688,13.887c0,7.389-2.734,13.113-8.144,17.007
	c-5.428,3.886-13.301,5.872-23.402,5.872c-12.211,0-21.553-2.593-27.742-7.711c-6.189-5.105-9.416-12.885-9.604-23.107v-0.203
	h-21.114v0.217c0.137,15.88,5.342,28.139,15.465,36.408c10.116,8.271,24.454,12.446,42.619,12.446
	c16.741,0,30.037-3.731,39.52-11.085c9.495-7.369,14.305-17.606,14.305-30.415C887.5,420.209,883.985,411.548,877.069,405.204z"/>
</svg>
